<svg xmlns="http://www.w3.org/2000/svg" aria-hidden="true" role="img" width="32" height="32" preserveAspectRatio="xMidYMid meet" viewBox="0 0 256 256">
    <title>Phobos Logo</title>
    <defs>
        <linearGradient id="phobos-gradient" x1="0" y1="0" x2="1" y2="1">
            <!-- Cores inspiradas em Marte -->
            <stop offset="0%" stop-color="#d66d75" />
            <stop offset="100%" stop-color="#e29587" />
        </linearGradient>
    </defs>
    <!-- Círculo de fundo -->
    <circle cx="128" cy="128" r="120" fill="url(#phobos-gradient)" />
    <!-- Letra "P" -->
    <path fill="#FFFFFF" d="M116.5,176.1V79.9h28.4c14.8,0,26.7,3.8,35.7,11.5c9,7.7,13.5,18.1,13.5,31.2c0,13.5-4.8,24.3-14.3,32.4 c-9.5,8.1-21.9,12.2-37.2,12.2H116.5z M134.9,95.4v65.2h10c10.4,0,18.3-2.6,23.7-7.9c5.4-5.3,8.1-12.3,8.1-21 c0-8.5-2.7-15.4-8-20.6c-5.3-5.2-13-7.8-23-7.8H134.9z" />
</svg>